<svg preserveAspectRatio="none" width="100%" height="100%" overflow="visible" style="display: block;" viewBox="0 0 32 32" fill="none" xmlns="http://www.w3.org/2000/svg">
<g id="Icon">
<path id="Vector" d="M5.33262 18.6642C5.08034 18.6651 4.833 18.5944 4.61932 18.4602C4.40565 18.3261 4.23441 18.1341 4.12552 17.9065C4.01662 17.679 3.97453 17.4252 4.00413 17.1746C4.03374 16.9241 4.13382 16.6871 4.29276 16.4912L17.491 2.893C17.59 2.77873 17.7249 2.7015 17.8736 2.67401C18.0223 2.64651 18.1759 2.67038 18.3092 2.74169C18.4425 2.81301 18.5476 2.92753 18.6073 3.06646C18.667 3.20539 18.6776 3.36047 18.6375 3.50625L16.0779 11.5319C16.0024 11.7339 15.977 11.9512 16.004 12.1651C16.0309 12.3791 16.1094 12.5833 16.2326 12.7603C16.3558 12.9372 16.5202 13.0817 16.7115 13.1812C16.9028 13.2807 17.1154 13.3323 17.331 13.3316H26.6631C26.9154 13.3308 27.1627 13.4015 27.3764 13.5356C27.5901 13.6697 27.7613 13.8617 27.8702 14.0893C27.9791 14.3169 28.0212 14.5707 27.9916 14.8212C27.962 15.0717 27.8619 15.3087 27.703 15.5047L14.5047 29.1028C14.4057 29.2171 14.2708 29.2943 14.1221 29.3218C13.9735 29.3493 13.8199 29.3255 13.6865 29.2542C13.5532 29.1828 13.4481 29.0683 13.3884 28.9294C13.3288 28.7905 13.3181 28.6354 13.3582 28.4896L15.9179 20.464C15.9934 20.262 16.0187 20.0447 15.9917 19.8307C15.9648 19.6168 15.8863 19.4126 15.7631 19.2356C15.6399 19.0586 15.4756 18.9142 15.2843 18.8147C15.093 18.7152 14.8804 18.6635 14.6647 18.6642H5.33262Z" stroke="var(--stroke-0, white)" stroke-width="2.66631" stroke-linecap="round" stroke-linejoin="round"/>
</g>
</svg>
