<svg preserveAspectRatio="none" width="100%" height="100%" overflow="visible" style="display: block;" viewBox="0 0 32 32" fill="none" xmlns="http://www.w3.org/2000/svg">
<g id="Icon">
<path id="Vector" d="M21.3305 27.9963V25.33C21.3305 23.9157 20.7687 22.5593 19.7686 21.5592C18.7685 20.5592 17.4122 19.9973 15.9979 19.9973H7.99893C6.58463 19.9973 5.22826 20.5592 4.2282 21.5592C3.22814 22.5593 2.66631 23.9157 2.66631 25.33V27.9963" stroke="var(--stroke-0, #9810FA)" stroke-width="2.66631" stroke-linecap="round" stroke-linejoin="round"/>
<path id="Vector_2" d="M21.3305 4.1701C22.474 4.46655 23.4867 5.13432 24.2097 6.0686C24.9326 7.00287 25.3249 8.15075 25.3249 9.33208C25.3249 10.5134 24.9326 11.6613 24.2097 12.5956C23.4867 13.5298 22.474 14.1976 21.3305 14.4941" stroke="var(--stroke-0, #9810FA)" stroke-width="2.66631" stroke-linecap="round" stroke-linejoin="round"/>
<path id="Vector_3" d="M29.3294 27.9963V25.33C29.3285 24.1484 28.9353 23.0006 28.2114 22.0668C27.4875 21.133 26.474 20.466 25.33 20.1707" stroke="var(--stroke-0, #9810FA)" stroke-width="2.66631" stroke-linecap="round" stroke-linejoin="round"/>
<path id="Vector_4" d="M11.9984 14.6647C14.9435 14.6647 17.331 12.2772 17.331 9.33209C17.331 6.38696 14.9435 3.99947 11.9984 3.99947C9.05328 3.99947 6.66578 6.38696 6.66578 9.33209C6.66578 12.2772 9.05328 14.6647 11.9984 14.6647Z" stroke="var(--stroke-0, #9810FA)" stroke-width="2.66631" stroke-linecap="round" stroke-linejoin="round"/>
</g>
</svg>
