<svg preserveAspectRatio="none" width="100%" height="100%" overflow="visible" style="display: block;" viewBox="0 0 28 28" fill="none" xmlns="http://www.w3.org/2000/svg">
<g id="Icon">
<path id="Vector" d="M13.4445 2.67723C13.4956 2.57394 13.5746 2.487 13.6725 2.42622C13.7704 2.36543 13.8833 2.33322 13.9986 2.33322C14.1138 2.33322 14.2268 2.36543 14.3247 2.42622C14.4226 2.487 14.5016 2.57394 14.5527 2.67723L17.2474 8.13551C17.4249 8.49477 17.687 8.80558 18.0111 9.04128C18.3351 9.27697 18.7116 9.43051 19.1081 9.4887L25.1344 10.3706C25.2486 10.3872 25.3559 10.4353 25.4442 10.5097C25.5324 10.584 25.5981 10.6816 25.6338 10.7913C25.6694 10.901 25.6737 11.0185 25.6461 11.1305C25.6185 11.2426 25.56 11.3446 25.4774 11.4252L21.1192 15.6691C20.8318 15.9492 20.6167 16.2949 20.4926 16.6765C20.3684 17.0582 20.3388 17.4643 20.4064 17.8599L21.4353 23.8559C21.4555 23.97 21.4432 24.0875 21.3997 24.195C21.3563 24.3025 21.2836 24.3956 21.1898 24.4637C21.096 24.5318 20.985 24.5722 20.8694 24.5802C20.7538 24.5883 20.6382 24.5636 20.5359 24.5092L15.1488 21.6768C14.7938 21.4904 14.3989 21.393 13.998 21.393C13.5971 21.393 13.2022 21.4904 12.8472 21.6768L7.46124 24.5092C7.35897 24.5633 7.24356 24.5877 7.12814 24.5795C7.01271 24.5713 6.9019 24.5308 6.80832 24.4628C6.71473 24.3947 6.64213 24.3018 6.59876 24.1945C6.55539 24.0872 6.543 23.9699 6.563 23.8559L7.59073 17.861C7.65862 17.4652 7.62921 17.0589 7.50503 16.677C7.38086 16.2952 7.16565 15.9492 6.87797 15.6691L2.51974 11.4263C2.43644 11.3459 2.37742 11.2437 2.34938 11.1313C2.32135 11.0189 2.32544 10.9009 2.36118 10.7908C2.39693 10.6806 2.46289 10.5827 2.55156 10.5082C2.64023 10.4338 2.74804 10.3857 2.86271 10.3694L8.88793 9.4887C9.28486 9.43096 9.66181 9.27763 9.98633 9.0419C10.3109 8.80618 10.5732 8.49512 10.7509 8.13551L13.4445 2.67723Z" fill="var(--fill-0, white)" stroke="var(--stroke-0, white)" stroke-width="2.3331" stroke-linecap="round" stroke-linejoin="round"/>
</g>
</svg>
