<svg preserveAspectRatio="none" width="100%" height="100%" overflow="visible" style="display: block;" viewBox="0 0 32 32" fill="none" xmlns="http://www.w3.org/2000/svg">
<g id="Icon">
<path id="Vector" d="M2.66631 12.665C2.66634 11.1815 3.11638 9.73287 3.95698 8.51047C4.79759 7.28808 5.98922 6.34942 7.3745 5.81848C8.75977 5.28754 10.2735 5.18929 11.7158 5.53671C13.1581 5.88413 14.461 6.66087 15.4526 7.76435C15.5224 7.83903 15.6069 7.89856 15.7007 7.93926C15.7945 7.97996 15.8956 8.00097 15.9979 8.00097C16.1001 8.00097 16.2013 7.97996 16.2951 7.93926C16.3889 7.89856 16.4733 7.83903 16.5431 7.76435C17.5316 6.6537 18.8349 5.87043 20.2795 5.51879C21.7241 5.16715 23.2416 5.26381 24.6299 5.79593C26.0182 6.32804 27.2116 7.27035 28.0511 8.49746C28.8906 9.72456 29.3365 11.1782 29.3294 12.665C29.3294 15.718 27.3297 17.9977 25.33 19.9974L18.0083 27.0804C17.7599 27.3658 17.4536 27.5949 17.1098 27.7528C16.766 27.9106 16.3925 27.9935 16.0143 27.9959C15.636 27.9982 15.2615 27.9201 14.9157 27.7667C14.57 27.6132 14.2608 27.3879 14.0088 27.1058L6.66578 19.9974C4.66605 17.9977 2.66631 15.7313 2.66631 12.665Z" stroke="var(--stroke-0, white)" stroke-width="2.66631" stroke-linecap="round" stroke-linejoin="round"/>
</g>
</svg>
